<?xml version="1.0" standalone="no"?>
<!DOCTYPE svg PUBLIC "-//W3C//DTD SVG 20010904//EN"
 "http://www.w3.org/TR/2001/REC-SVG-20010904/DTD/svg10.dtd">
<svg version="1.0" xmlns="http://www.w3.org/2000/svg"
 width="800.000000pt" height="800.000000pt" viewBox="0 0 800.000000 800.000000"
 preserveAspectRatio="xMidYMid meet">
<metadata>
Created by potrace 1.16, written by Peter Selinger 2001-2019
</metadata>
<g transform="translate(0.000000,800.000000) scale(0.100000,-0.100000)"
fill="#000000" stroke="none">
<path d="M3817 6544 c-452 -82 -808 -446 -913 -934 -25 -115 -25 -385 -1 -520
70 -386 259 -775 495 -1021 109 -114 170 -163 272 -217 212 -114 413 -121 619
-22 119 57 191 112 308 233 242 251 421 619 500 1022 24 129 24 409 -1 525
-93 428 -377 763 -757 893 -160 55 -358 71 -522 41z"/>
<path d="M3115 3582 c-245 -77 -759 -250 -880 -297 -222 -85 -400 -174 -463
-230 -133 -120 -227 -408 -291 -890 -32 -239 -46 -453 -33 -500 17 -59 65
-130 113 -165 89 -64 -85 -60 2439 -60 2524 0 2350 -4 2439 60 48 35 96 106
113 165 13 47 -1 259 -33 500 -61 467 -159 769 -287 886 -120 109 -563 287
-1246 499 l-165 51 -410 -300 -411 -301 -410 300 c-225 165 -413 300 -417 299
-5 0 -30 -8 -58 -17z m970 -744 c2 -13 56 -286 120 -608 63 -322 118 -595 120
-607 l5 -23 -330 0 -330 0 5 23 c6 27 188 951 216 1097 11 58 23 113 25 123 5
14 18 17 84 17 74 0 80 -1 85 -22z"/>
</g>
</svg>
