<?xml version="1.0" standalone="no"?>
<!DOCTYPE svg PUBLIC "-//W3C//DTD SVG 20010904//EN"
 "http://www.w3.org/TR/2001/REC-SVG-20010904/DTD/svg10.dtd">
<svg version="1.0" xmlns="http://www.w3.org/2000/svg"
 width="840.000000pt" height="1131.000000pt" viewBox="0 0 840.000000 1131.000000"
 preserveAspectRatio="xMidYMid meet">
<metadata>
Created by potrace 1.16, written by Peter Selinger 2001-2019
</metadata>
<g transform="translate(0.000000,1131.000000) scale(0.100000,-0.100000)"
fill="#ffffff" stroke="none">
<path d="M3855 10884 c-506 -62 -963 -241 -1340 -523 -128 -96 -325 -287 -428
-416 -288 -358 -489 -802 -591 -1306 -65 -319 -86 -567 -86 -1011 l0 -318 599
0 599 0 5 383 c5 406 14 504 63 724 89 402 236 686 468 911 272 263 585 374
1057 373 349 0 565 -45 797 -166 116 -60 198 -123 307 -236 246 -255 392 -596
467 -1089 17 -111 21 -202 25 -517 l5 -383 600 0 601 0 -6 393 c-7 491 -32
725 -113 1057 -106 432 -281 810 -525 1137 -99 132 -349 381 -479 477 -348
258 -760 426 -1216 497 -185 28 -628 36 -809 13z"/>
<path d="M1218 6894 c-520 -81 -938 -518 -998 -1044 -8 -79 -11 -634 -8 -2205
l3 -2100 32 -117 c59 -219 163 -400 317 -554 200 -198 438 -312 720 -345 62
-7 1029 -9 2986 -7 2696 3 2900 5 2965 21 258 63 442 163 610 332 168 167 272
358 331 605 17 71 18 195 22 2170 2 1472 0 2124 -8 2192 -53 472 -381 872
-830 1013 -186 58 -21 55 -3165 54 -2381 -1 -2905 -3 -2977 -15z m3154 -1999
c81 -17 169 -51 246 -96 73 -44 227 -198 271 -271 217 -370 111 -833 -244
-1073 l-40 -26 -5 -507 -5 -507 -27 -58 c-38 -80 -117 -160 -197 -200 -61 -30
-73 -32 -166 -32 -91 0 -106 3 -165 31 -124 59 -210 175 -230 311 -5 37 -10
271 -10 518 l-1 450 -41 25 c-60 36 -167 144 -218 220 -90 133 -130 267 -130
441 0 372 260 694 625 774 80 18 254 18 337 0z"/>
</g>
</svg>
